PathFileType	4	(X/Y/Z)	/Users/mathieubourgeois/Desktop/Analyse/Traitement/Sujet_08/Data/Transformed_Sujet_08_velo_80.trc
DataRate	CameraRate	NumFrames	NumMarkers	Units	OrigDataRate	OrigDataStartFrame	OrigNumFrames
120.000000	120.000000	4	35	mm	120.000000	1643	1878
Frame#	Time	RFHD			RANE			STRN			LANI			LKNE			T10			RHUM			RWRB			C7			LFWT			LTOE			RTOE			LWRA			LBWT			RBWT			RFWT			LKNI			RKNE			LANE			LHEE			LHUM			LRAD			RRAD			RWRA			LWRB			LFHD			LBHD			RBHD			RSHO			LSHO			CLAV			LCAR			RCAR			RANI			RKNI			
		X1	Y1	Z1	X2	Y2	Z2	X3	Y3	Z3	X4	Y4	Z4	X5	Y5	Z5	X6	Y6	Z6	X7	Y7	Z7	X8	Y8	Z8	X9	Y9	Z9	X10	Y10	Z10	X11	Y11	Z11	X12	Y12	Z12	X13	Y13	Z13	X14	Y14	Z14	X15	Y15	Z15	X16	Y16	Z16	X17	Y17	Z17	X18	Y18	Z18	X19	Y19	Z19	X20	Y20	Z20	X21	Y21	Z21	X22	Y22	Z22	X23	Y23	Z23	X24	Y24	Z24	X25	Y25	Z25	X26	Y26	Z26	X27	Y27	Z27	X28	Y28	Z28	X29	Y29	Z29	X30	Y30	Z30	X31	Y31	Z31	X32	Y32	Z32	X33	Y33	Z33	X34	Y34	Z34	X35	Y35	Z35	

1644	13.69166666666667	268.4534606933594	1400.127075195312	73.30030822753901	-288.0001831054688	546.8666381835938	176.8039855957031	-54.62678909301758	1162.721557617188	22.1782855987548	-51.07158279418945	342.4685668945312	-81.30893707275392	-26.67645835876463	755.9464721679688	-152.7526550292969	-205.5924224853516	1357.644775390625	23.11241722106923	150.5051727294922	1077.966552734375	209.0915069580078	337.9243469238281	908.6619262695312	256.646484375	28.88584899902343	1431.460571289062	30.33265113830558	-254.3262786865234	1094.12939453125	-103.6916656494142	113.2749557495117	259.1745910644531	-123.7805328369141	-176.7399291992188	385.639404296875	143.6929473876953	363.5481872558594	938.4736938476562	-172.84765625	-397.5777282714844	1150.075317382812	-41.93286895751965	-398.6336669921875	1151.525756835938	90.94136810302723	-242.9990692138672	1090.425659179688	128.1865692138671	-35.43980026245116	683.8945922851562	-52.13532257080083	-11.08681583404544	819.4971313476562	200.8864288330078	-88.28247070312499	328.7372741699219	-161.878173828125	-129.9753265380859	305.9105529785156	-116.8549041748047	136.4003448486328	1077.934814453125	-174.2457275390625	188.5773162841797	1109.392700195312	-226.6629486083985	188.746841430664	1099.677612304688	257.9533996582031	362.4039916992188	929.4469604492188	188.8400421142578	328.2325744628906	897.417236328125	-225.9505462646485	266.2351989746094	1410.185302734375	-54.62489318847661	161.2686157226562	1523.770263671875	-53.76165008544929	164.8309478759766	1530.654541015625	83.56629180908195	70.86142730712889	1363.90283203125	147.1970977783202	61.40739059448244	1366.3759765625	-115.7122802734376	54.13824844360352	1294.747192382812	21.99605369567864	426.8534851074219	917.617431640625	-254.9466857910156	439.8308105468749	909.2738037109375	276.445556640625	-257.2290344238281	544.1005859375	99.89900970458979	-8.334975242614759	760.62158203125	95.48550415039058	
1645	13.7	268.8318176269531	1400.42333984375	75.53172302246088	-282.528076171875	557.8667602539062	176.7383422851562	-54.28976058959961	1162.90283203125	22.80118179321281	-57.58830642700195	332.3596801757812	-82.35586547851564	-34.08788299560545	745.7431640625	-152.6053924560547	-205.0093536376953	1357.755615234375	22.79983139038075	150.7558441162109	1078.05322265625	209.3541564941406	338.0764770507812	908.6187133789062	256.6031188964844	29.40618515014648	1431.625	31.72828674316398	-253.1702423095703	1093.617553710938	-104.590187072754	106.239730834961	247.8097076416016	-123.8898849487305	-168.8852081298828	399.3486633300781	144.763931274414	363.9483642578125	938.2841796875	-172.8554077148438	-396.5019836425781	1150	-43.56863784790051	-398.3454284667969	1152.036376953125	89.28553009033192	-243.1873321533203	1091.07177734375	127.0964126586913	-44.05178070068359	673.7061767578125	-52.11205291748052	-5.815587997436548	829.4158935546875	200.9953918457031	-95.21789550781249	318.3388977050781	-162.5858306884766	-136.7054138183593	296.2563171386719	-119.1217727661133	137.3013000488282	1078.45947265625	-173.9263763427735	189.3807830810547	1110.101196289062	-226.3857879638672	188.8392791748047	1099.596069335938	258.3730468749999	362.5424499511719	929.4925537109375	188.7988891601562	328.4732666015625	897.47119140625	-226.0244750976563	266.9210815429688	1410.635864257812	-52.4111938476563	161.7535552978516	1524.11328125	-51.65995407104499	165.0219268798828	1530.787719726562	85.6221160888671	70.7384567260742	1363.962524414062	148.4702606201171	62.6135597229004	1366.856689453125	-114.202507019043	54.66762924194336	1294.940185546875	23.32050514221184	427.0967712402344	917.5146484375	-255.0522613525391	439.9646606445312	909.1975708007812	276.3352661132812	-252.0415496826172	555.2024536132812	99.72775268554682	-2.866523504257214	771.174560546875	95.42655181884761	
1646	13.70833333333333	269.33056640625	1400.62060546875	77.63835906982416	-275.9525756835938	567.5422973632812	176.2737121582031	-53.57427597045898	1163.089965820312	23.31235504150383	-65.3156051635742	322.6472778320312	-82.89470672607425	-41.80793762207029	736.1012573242188	-152.0325164794922	-204.4091949462891	1357.8662109375	22.37072944641103	150.9703063964843	1078.119873046875	209.6038360595703	338.1829223632812	908.5686645507812	256.6324462890625	29.90971374511718	1431.79248046875	33.0839538574218	-252.0669708251953	1093.065795898438	-105.5009307861329	98.41714477539064	236.9203796386719	-124.0313568115234	-160.4486083984375	411.255126953125	144.1774749755859	364.3257751464844	938.0983276367188	-172.814208984375	-395.5114135742188	1149.904541015625	-45.04539489746106	-397.9420471191406	1152.504150390625	87.71082305908192	-242.8708953857422	1091.373779296875	124.9334869384765	-52.88745498657226	664.0542602539062	-51.44254684448247	-0.706440448761011	839.4999389648438	200.9905548095703	-102.8399505615234	308.7318115234375	-163.1724243164063	-144.3696899414062	286.9675598144531	-119.9593658447266	138.2468719482422	1079.05322265625	-173.5931396484375	190.8315582275391	1110.73095703125	-225.4036102294922	188.9037475585937	1099.4794921875	258.7955017089843	362.6499633789062	929.5241088867188	188.8130798339844	328.6984252929688	897.5354614257812	-226.038330078125	267.6122741699219	1411.133544921875	-50.16871643066411	162.3092956542969	1524.46484375	-49.57521820068366	165.2119750976562	1530.965942382812	87.69600677490226	70.80910491943358	1364.121948242188	149.8495178222655	63.82702636718751	1367.371704101562	-112.7558593750001	55.14291381835938	1295.154174804688	24.62960433959954	427.3404846191407	917.4267578125	-255.0660552978516	440.0872802734374	909.10009765625	276.2619018554688	-246.5869140625	565.7098388671875	99.43124389648432	1.825581192970264	782.6146240234375	94.75469970703121	
1647	13.71666666666667	269.4884033203125	1401.009765625	80.04628753662104	-270.2173156738281	577.90087890625	176.2526092529296	-53.04589080810547	1163.245361328125	23.71247482299797	-73.58299255371092	313.7200927734375	-83.24499511718753	-49.49522399902342	727.083984375	-151.3677673339844	-203.84912109375	1357.978759765625	21.8970775604247	151.1172943115234	1078.159912109375	209.8368225097656	338.2835388183593	908.4923095703125	256.683349609375	30.38786697387695	1431.958129882812	34.35932922363273	-251.0955963134766	1092.471557617188	-106.3835220336915	89.89249420166017	226.614013671875	-124.0959014892578	-151.3328247070313	423.4270935058594	144.4049072265624	364.7367248535156	937.9578857421875	-172.6953430175781	-394.5721435546875	1149.7705078125	-46.47042083740246	-397.4968566894531	1152.861328125	86.17381286621082	-242.8037414550782	1091.924560546875	123.8654403686522	-62.34313201904296	654.9754028320312	-49.90316390991216	4.140629768371557	849.54443359375	200.9914093017578	-110.9824752807617	300.0091552734375	-163.7067413330078	-152.6695404052734	278.4624328613281	-120.5457382202149	139.1550598144532	1079.636840820312	-173.1025695800782	191.545883178711	1111.447387695312	-225.1014404296875	188.9242095947265	1099.34033203125	259.1934509277343	362.7408447265625	929.5281982421875	188.8611602783203	328.9015197753906	897.6170654296875	-225.9764251708985	268.3020324707031	1411.6416015625	-47.91980743408208	162.8800506591797	1524.840087890625	-47.52377700805671	165.3541717529297	1531.131958007812	89.78318786621085	70.66885375976561	1364.2978515625	150.9674072265624	65.04080963134767	1367.915649414062	-111.4018554687501	55.67396545410156	1295.381591796875	25.79573440551751	427.5924377441407	917.3572387695312	-255.0235900878906	440.1907653808593	909.0001220703125	276.2388916015625	-240.7503356933594	575.725830078125	99.09425354003901	7.475404739379871	792.731689453125	94.85671234130855	
